{
    "asset" : {
        "generator" : "Khronos glTF Blender I/O v1.5.17",
        "version" : "2.0"
    },
    "scene" : 0,
    "scenes" : [
        {
            "name" : "Scene",
            "nodes" : [
                0
            ]
        }
    ],
    "nodes" : [
        {
            "mesh" : 0,
            "name" : "car-kart-green",
            "scale" : [
                2.2550346851348877,
                2.2550346851348877,
                2.2550346851348877
            ],
            "translation" : [
                0,
                0.25696077942848206,
                0
            ]
        }
    ],
    "materials" : [
        {
            "doubleSided" : true,
            "name" : "Material.006",
            "pbrMetallicRoughness" : {
                "baseColorFactor" : [
                    0.006604496855288744,
                    0.8000000715255737,
                    0,
                    1
                ],
                "metallicFactor" : 0,
                "roughnessFactor" : 0.5
            }
        },
        {
            "doubleSided" : true,
            "name" : "Material.007",
            "pbrMetallicRoughness" : {
                "baseColorFactor" : [
                    0,
                    0,
                    0,
                    1
                ],
                "metallicFactor" : 0
            }
        },
        {
            "doubleSided" : true,
            "name" : "Material.009",
            "pbrMetallicRoughness" : {
                "baseColorFactor" : [
                    0.800000011920929,
                    0.800000011920929,
                    0.800000011920929,
                    1
                ],
                "metallicFactor" : 0.5,
                "roughnessFactor" : 0.10000000149011612
            }
        },
        {
            "doubleSided" : true,
            "name" : "Material.010",
            "pbrMetallicRoughness" : {
                "baseColorFactor" : [
                    0.22282306849956512,
                    0.3351590633392334,
                    1,
                    1
                ],
                "roughnessFactor" : 0.10000000149011612
            }
        },
        {
            "doubleSided" : true,
            "name" : "Material.011",
            "pbrMetallicRoughness" : {
                "baseColorFactor" : [
                    0.334320604801178,
                    0.334320604801178,
                    0.334320604801178,
                    1
                ],
                "metallicFactor" : 0.5,
                "roughnessFactor" : 0.5
            }
        }
    ],
    "meshes" : [
        {
            "name" : "Cube.868",
            "primitives" : [
                {
                    "attributes" : {
                        "POSITION" : 0,
                        "NORMAL" : 1
                    },
                    "indices" : 2,
                    "material" : 0
                },
                {
                    "attributes" : {
                        "POSITION" : 3,
                        "NORMAL" : 4
                    },
                    "indices" : 5,
                    "material" : 1
                },
                {
                    "attributes" : {
                        "POSITION" : 6,
                        "NORMAL" : 7
                    },
                    "indices" : 8,
                    "material" : 2
                },
                {
                    "attributes" : {
                        "POSITION" : 9,
                        "NORMAL" : 10
                    },
                    "indices" : 11,
                    "material" : 3
                },
                {
                    "attributes" : {
                        "POSITION" : 12,
                        "NORMAL" : 13
                    },
                    "indices" : 14,
                    "material" : 4
                },
                {
                    "attributes" : {
                        "POSITION" : 15,
                        "NORMAL" : 16
                    },
                    "indices" : 17
                }
            ]
        }
    ],
    "accessors" : [
        {
            "bufferView" : 0,
            "componentType" : 5126,
            "count" : 196,
            "max" : [
                0.1770249307155609,
                0.07948099821805954,
                0.3136014938354492
            ],
            "min" : [
                -0.18662145733833313,
                -0.10077238082885742,
                -0.30166298151016235
            ],
            "type" : "VEC3"
        },
        {
            "bufferView" : 1,
            "componentType" : 5126,
            "count" : 196,
            "type" : "VEC3"
        },
        {
            "bufferView" : 2,
            "componentType" : 5123,
            "count" : 390,
            "type" : "SCALAR"
        },
        {
            "bufferView" : 3,
            "componentType" : 5126,
            "count" : 1353,
            "max" : [
                0.1713637411594391,
                0.23478779196739197,
                0.27421078085899353
            ],
            "min" : [
                -0.1809602677822113,
                -0.11323349177837372,
                -0.2382517158985138
            ],
            "type" : "VEC3"
        },
        {
            "bufferView" : 4,
            "componentType" : 5126,
            "count" : 1353,
            "type" : "VEC3"
        },
        {
            "bufferView" : 5,
            "componentType" : 5123,
            "count" : 3468,
            "type" : "SCALAR"
        },
        {
            "bufferView" : 6,
            "componentType" : 5126,
            "count" : 151,
            "max" : [
                0.16456079483032227,
                -0.009047217667102814,
                0.21159091591835022
            ],
            "min" : [
                -0.17415732145309448,
                -0.09591972827911377,
                -0.22093799710273743
            ],
            "type" : "VEC3"
        },
        {
            "bufferView" : 7,
            "componentType" : 5126,
            "count" : 151,
            "type" : "VEC3"
        },
        {
            "bufferView" : 8,
            "componentType" : 5123,
            "count" : 432,
            "type" : "SCALAR"
        },
        {
            "bufferView" : 9,
            "componentType" : 5126,
            "count" : 24,
            "max" : [
                0.04513254016637802,
                0.1905045211315155,
                -0.0002084486186504364
            ],
            "min" : [
                -0.05472905933856964,
                0.14877769351005554,
                -0.06819482147693634
            ],
            "type" : "VEC3"
        },
        {
            "bufferView" : 10,
            "componentType" : 5126,
            "count" : 24,
            "type" : "VEC3"
        },
        {
            "bufferView" : 11,
            "componentType" : 5123,
            "count" : 36,
            "type" : "SCALAR"
        },
        {
            "bufferView" : 12,
            "componentType" : 5126,
            "count" : 194,
            "max" : [
                0.09227432310581207,
                0.06434062868356705,
                0.2079884111881256
            ],
            "min" : [
                -0.07955683767795563,
                -0.07616807520389557,
                -0.2631693482398987
            ],
            "type" : "VEC3"
        },
        {
            "bufferView" : 13,
            "componentType" : 5126,
            "count" : 194,
            "type" : "VEC3"
        },
        {
            "bufferView" : 14,
            "componentType" : 5123,
            "count" : 354,
            "type" : "SCALAR"
        },
        {
            "bufferView" : 15,
            "componentType" : 5126,
            "count" : 32,
            "max" : [
                0.09227432310581207,
                0.04897076636552811,
                -0.2157762050628662
            ],
            "min" : [
                -0.07240283489227295,
                0.006810866296291351,
                -0.25927111506462097
            ],
            "type" : "VEC3"
        },
        {
            "bufferView" : 16,
            "componentType" : 5126,
            "count" : 32,
            "type" : "VEC3"
        },
        {
            "bufferView" : 17,
            "componentType" : 5123,
            "count" : 54,
            "type" : "SCALAR"
        }
    ],
    "bufferViews" : [
        {
            "buffer" : 0,
            "byteLength" : 2352,
            "byteOffset" : 0
        },
        {
            "buffer" : 0,
            "byteLength" : 2352,
            "byteOffset" : 2352
        },
        {
            "buffer" : 0,
            "byteLength" : 780,
            "byteOffset" : 4704
        },
        {
            "buffer" : 0,
            "byteLength" : 16236,
            "byteOffset" : 5484
        },
        {
            "buffer" : 0,
            "byteLength" : 16236,
            "byteOffset" : 21720
        },
        {
            "buffer" : 0,
            "byteLength" : 6936,
            "byteOffset" : 37956
        },
        {
            "buffer" : 0,
            "byteLength" : 1812,
            "byteOffset" : 44892
        },
        {
            "buffer" : 0,
            "byteLength" : 1812,
            "byteOffset" : 46704
        },
        {
            "buffer" : 0,
            "byteLength" : 864,
            "byteOffset" : 48516
        },
        {
            "buffer" : 0,
            "byteLength" : 288,
            "byteOffset" : 49380
        },
        {
            "buffer" : 0,
            "byteLength" : 288,
            "byteOffset" : 49668
        },
        {
            "buffer" : 0,
            "byteLength" : 72,
            "byteOffset" : 49956
        },
        {
            "buffer" : 0,
            "byteLength" : 2328,
            "byteOffset" : 50028
        },
        {
            "buffer" : 0,
            "byteLength" : 2328,
            "byteOffset" : 52356
        },
        {
            "buffer" : 0,
            "byteLength" : 708,
            "byteOffset" : 54684
        },
        {
            "buffer" : 0,
            "byteLength" : 384,
            "byteOffset" : 55392
        },
        {
            "buffer" : 0,
            "byteLength" : 384,
            "byteOffset" : 55776
        },
        {
            "buffer" : 0,
            "byteLength" : 108,
            "byteOffset" : 56160
        }
    ],
    "buffers" : [
        {
            "byteLength" : 56268,
            "uri" : "data:application/octet-stream;base64,"
        }
    ]
}
