{
    "asset" : {
        "generator" : "Khronos glTF Blender I/O v1.5.17",
        "version" : "2.0"
    },
    "scene" : 0,
    "scenes" : [
        {
            "name" : "Scene",
            "nodes" : [
                0
            ]
        }
    ],
    "nodes" : [
        {
            "mesh" : 0,
            "name" : "Cylinder.001",
            "translation" : [
                11.097559928894043,
                0.2882832884788513,
                -20.045021057128906
            ]
        }
    ],
    "materials" : [
        {
            "doubleSided" : true,
            "name" : "treetrunk.001",
            "pbrMetallicRoughness" : {
                "baseColorFactor" : [
                    0.16794775426387787,
                    0.029451847076416016,
                    0,
                    1
                ],
                "metallicFactor" : 0
            }
        },
        {
            "doubleSided" : true,
            "name" : "treeleaves.001",
            "pbrMetallicRoughness" : {
                "baseColorFactor" : [
                    0.008915149606764317,
                    0.11927519738674164,
                    0,
                    1
                ],
                "metallicFactor" : 0
            }
        }
    ],
    "meshes" : [
        {
            "name" : "Cylinder.001",
            "primitives" : [
                {
                    "attributes" : {
                        "POSITION" : 0,
                        "NORMAL" : 1,
                        "TEXCOORD_0" : 2
                    },
                    "indices" : 3,
                    "material" : 0
                },
                {
                    "attributes" : {
                        "POSITION" : 4,
                        "NORMAL" : 5,
                        "TEXCOORD_0" : 6
                    },
                    "indices" : 7,
                    "material" : 1
                }
            ]
        }
    ],
    "accessors" : [
        {
            "bufferView" : 0,
            "componentType" : 5126,
            "count" : 80,
            "max" : [
                0.3443676233291626,
                0.34436750411987305,
                0.3443675637245178
            ],
            "min" : [
                -0.34436744451522827,
                -0.34436750411987305,
                -0.34436750411987305
            ],
            "type" : "VEC3"
        },
        {
            "bufferView" : 1,
            "componentType" : 5126,
            "count" : 80,
            "type" : "VEC3"
        },
        {
            "bufferView" : 2,
            "componentType" : 5126,
            "count" : 80,
            "type" : "VEC2"
        },
        {
            "bufferView" : 3,
            "componentType" : 5123,
            "count" : 138,
            "type" : "SCALAR"
        },
        {
            "bufferView" : 4,
            "componentType" : 5126,
            "count" : 710,
            "max" : [
                1.8472474813461304,
                4.5627241134643555,
                1.8472473621368408
            ],
            "min" : [
                -1.84724760055542,
                0.34436750411987305,
                -1.8472474813461304
            ],
            "type" : "VEC3"
        },
        {
            "bufferView" : 5,
            "componentType" : 5126,
            "count" : 710,
            "type" : "VEC3"
        },
        {
            "bufferView" : 6,
            "componentType" : 5126,
            "count" : 710,
            "type" : "VEC2"
        },
        {
            "bufferView" : 7,
            "componentType" : 5123,
            "count" : 1098,
            "type" : "SCALAR"
        }
    ],
    "bufferViews" : [
        {
            "buffer" : 0,
            "byteLength" : 960,
            "byteOffset" : 0
        },
        {
            "buffer" : 0,
            "byteLength" : 960,
            "byteOffset" : 960
        },
        {
            "buffer" : 0,
            "byteLength" : 640,
            "byteOffset" : 1920
        },
        {
            "buffer" : 0,
            "byteLength" : 276,
            "byteOffset" : 2560
        },
        {
            "buffer" : 0,
            "byteLength" : 8520,
            "byteOffset" : 2836
        },
        {
            "buffer" : 0,
            "byteLength" : 8520,
            "byteOffset" : 11356
        },
        {
            "buffer" : 0,
            "byteLength" : 5680,
            "byteOffset" : 19876
        },
        {
            "buffer" : 0,
            "byteLength" : 2196,
            "byteOffset" : 25556
        }
    ],
    "buffers" : [
        {
            "byteLength" : 27752,
            "uri" : "data:application/octet-stream;base64,"
        }
    ]
}
